<svg width="11" height="13" viewBox="0 0 11 13" fill="none" xmlns="http://www.w3.org/2000/svg"><path d="M9.72 3.064a.283.283 0 00-.283.283v9.087H.566V1.622H5.8a.283.283 0 000-.565H.283A.283.283 0 000 1.339v11.378c0 .156.127.283.283.283H9.72a.283.283 0 00.283-.283v-9.37a.283.283 0 00-.283-.283z" fill="#A7A7A7"/><path d="M7.52.986L3.034 5.471a.282.282 0 00-.074.128l-.385 1.483a.283.283 0 00.345.345l1.482-.385a.283.283 0 00.129-.074l4.484-4.485.904-.903c.11-.11.11-.29 0-.4L8.822.083a.283.283 0 00-.4 0L7.52.986zM4.186 6.514l-.943.244.245-.942 4.23-4.23.698.697-4.23 4.23zM8.622.683l.698.697-.503.503-.698-.697.503-.503z" fill="#A7A7A7"/></svg>