<svg width="16" height="14" viewBox="0 0 16 14" fill="none" xmlns="http://www.w3.org/2000/svg"><path d="M1.393 6.705c0-1.792.725-3.476 2.04-4.742A6.943 6.943 0 015.692.507 7.155 7.155 0 018.359 0c1.86 0 3.61.697 4.926 1.963A6.65 6.65 0 0114.8 4.137c.35.814.53 1.687.527 2.568a6.443 6.443 0 01-.527 2.567 6.65 6.65 0 01-1.513 2.174 6.97 6.97 0 01-2.26 1.453 7.183 7.183 0 01-2.666.507 7.18 7.18 0 01-2.666-.507 6.968 6.968 0 01-2.26-1.453.658.658 0 01-.204-.475c0-.177.074-.348.204-.474a.71.71 0 01.493-.196.71.71 0 01.493.196c2.172 2.092 5.707 2.092 7.88 0a5.322 5.322 0 001.211-1.739c.28-.65.423-1.349.421-2.053a5.156 5.156 0 00-.42-2.054A5.32 5.32 0 0012.3 2.91a5.555 5.555 0 00-1.807-1.165A5.725 5.725 0 008.36 1.34a5.725 5.725 0 00-2.133.405c-.677.27-1.29.666-1.807 1.166A5.32 5.32 0 003.208 4.65a5.155 5.155 0 00-.422 2.054H4.18L2.09 9.385 0 6.705h1.393zm6.27-4.023a.71.71 0 00-.493.196.658.658 0 00-.204.474v4.023c0 .371.313.67.697.67h2.787a.71.71 0 00.492-.196.658.658 0 00.204-.474.658.658 0 00-.204-.474.71.71 0 00-.492-.196H8.36V3.352c0-.37-.313-.67-.697-.67z" fill="#fff" fill-opacity=".5"/></svg>