<svg width="11" height="13" viewBox="0 0 11 13" fill="none" xmlns="http://www.w3.org/2000/svg">
<path d="M9.71988 3.06447C9.56374 3.06447 9.43711 3.19111 9.43711 3.34725V12.4344H0.565553V1.62207H5.79989C5.95603 1.62207 6.08267 1.49544 6.08267 1.3393C6.08267 1.18316 5.95603 1.05652 5.79989 1.05652H0.282777C0.126637 1.05652 0 1.18316 0 1.3393V12.7172C0 12.8734 0.126637 13 0.282777 13H9.71988C9.87602 13 10.0027 12.8734 10.0027 12.7172V3.34725C10.0027 3.19111 9.87607 3.06447 9.71988 3.06447Z" fill="#A7A7A7"/>
<path d="M7.51923 0.986041L3.03463 5.47064C2.999 5.50627 2.9735 5.55071 2.96087 5.59949L2.57596 7.08189C2.5508 7.17893 2.57884 7.28201 2.64972 7.35293C2.70345 7.40662 2.7756 7.43574 2.84965 7.43574C2.87335 7.43574 2.8972 7.43277 2.92072 7.42669L4.40313 7.04174C4.4519 7.02906 4.4964 7.00356 4.53198 6.96798L9.01649 2.48348L9.91972 1.58025C10.0302 1.46982 10.0302 1.29078 9.91977 1.1804L8.82236 0.0828534C8.76929 0.0297858 8.69742 0 8.62239 0C8.54741 0 8.47549 0.0297858 8.42247 0.0828534L7.51923 0.986041ZM4.18657 6.51365L3.24431 6.75835L3.48896 5.81609L7.71939 1.58567L8.41695 2.28328L4.18657 6.51365ZM8.62239 0.682669L9.31995 1.38028L8.81685 1.88338L8.11928 1.18577L8.62239 0.682669Z" fill="#A7A7A7"/>
</svg>
