<svg width="16" height="14" viewBox="0 0 16 14" fill="none" xmlns="http://www.w3.org/2000/svg">
<path d="M1.39345 6.7046C1.39345 4.9126 2.11782 3.2291 3.43345 1.9635C4.07883 1.33897 4.84649 0.843856 5.69201 0.506819C6.53753 0.169783 7.44411 -0.00248229 8.35927 -4.15611e-06C10.2196 -4.15611e-06 11.9695 0.697196 13.2851 1.9635C13.9341 2.58458 14.4487 3.32343 14.799 4.13725C15.1493 4.95108 15.3283 5.8237 15.3258 6.7046C15.3284 7.58544 15.1494 8.45802 14.7992 9.27183C14.4491 10.0856 13.9347 10.8245 13.2858 11.4457C12.6393 12.0685 11.8714 12.5623 11.0261 12.8987C10.1807 13.235 9.2747 13.4073 8.36 13.4057C7.44528 13.4074 6.53923 13.2351 5.6939 12.8988C4.84857 12.5624 4.08062 12.0686 3.43418 11.4457C3.3035 11.3199 3.23009 11.1493 3.23009 10.9714C3.23009 10.7936 3.3035 10.623 3.43418 10.4972C3.56486 10.3714 3.7421 10.3008 3.92691 10.3008C4.11172 10.3008 4.28896 10.3714 4.41964 10.4972C6.592 12.5888 10.1273 12.5888 12.3004 10.4972C12.8194 10.0003 13.2309 9.40924 13.5111 8.75824C13.7912 8.10724 13.9344 7.40922 13.9324 6.7046C13.9345 5.99985 13.7913 5.30171 13.5112 4.65058C13.2311 3.99945 12.8195 3.40828 12.3004 2.9113C11.784 2.41166 11.1698 2.01556 10.4933 1.74593C9.8168 1.4763 9.09147 1.3385 8.35927 1.3405C7.62715 1.33868 6.90192 1.47664 6.22556 1.74639C5.5492 2.01613 4.93514 2.41231 4.41891 2.912C3.89959 3.40878 3.48782 3.99979 3.20744 4.65079C2.92705 5.3018 2.78362 5.99987 2.78545 6.7046H4.17891L2.08945 9.3863L0 6.7046H1.39345ZM7.66255 2.6817C7.47776 2.6817 7.30055 2.75235 7.16988 2.87811C7.03922 3.00387 6.96582 3.17444 6.96582 3.3523V7.3752C6.96582 7.7462 7.27855 8.0458 7.66255 8.0458H10.4495C10.6342 8.0458 10.8115 7.97514 10.9421 7.84938C11.0728 7.72362 11.1462 7.55305 11.1462 7.3752C11.1462 7.19734 11.0728 7.02677 10.9421 6.90101C10.8115 6.77525 10.6342 6.7046 10.4495 6.7046H8.35927V3.3516C8.35927 2.9813 8.04655 2.6817 7.66255 2.6817Z" fill="white" fill-opacity="0.5"/>
</svg>
